<svg width="62" height="62" viewBox="0 0 62 62" fill="none" xmlns="http://www.w3.org/2000/svg">
<path d="M10.3333 56.8334C10.3333 51.3522 12.5107 46.0956 16.3865 42.2198C20.2622 38.3441 25.5189 36.1667 31 36.1667C36.4811 36.1667 41.7378 38.3441 45.6135 42.2198C49.4893 46.0956 51.6667 51.3522 51.6667 56.8334H46.5C46.5 52.7225 44.867 48.78 41.9602 45.8732C39.0533 42.9664 35.1109 41.3334 31 41.3334C26.8891 41.3334 22.9467 42.9664 20.0398 45.8732C17.133 48.78 15.5 52.7225 15.5 56.8334H10.3333ZM31 33.5834C22.4363 33.5834 15.5 26.6471 15.5 18.0834C15.5 9.51962 22.4363 2.58337 31 2.58337C39.5638 2.58337 46.5 9.51962 46.5 18.0834C46.5 26.6471 39.5638 33.5834 31 33.5834ZM31 28.4167C36.7092 28.4167 41.3333 23.7925 41.3333 18.0834C41.3333 12.3742 36.7092 7.75004 31 7.75004C25.2908 7.75004 20.6667 12.3742 20.6667 18.0834C20.6667 23.7925 25.2908 28.4167 31 28.4167Z" fill="white"/>
</svg>
